<svg xmlns="http://www.w3.org/2000/svg" xmlns:xlink="http://www.w3.org/1999/xlink" viewBox="0 0 280 250" preserveAspectRatio="xMidYMid" style="display: block; shape-rendering: auto; background: transparent;" width="280" height="250"><style type="text/css">
  .ld-text text {
    text-anchor: middle;
    dominant-baseline: middle;
    font-size: 57px;
    opacity: 0;
    user-select: none;
    pointer-events: none;
  }
</style>
<g style="transform-origin:140px 125px;transform:scale(1)" class="ld-text">
<g transform="translate(140,125)">
  <g transform="scale(0.7125) translate(0,0)"><g class="path" style="opacity: 1; transform-origin: -134.96px 8.62px 0px; transform: matrix3d(1, 0, 0, 0, 0, 1, 0, 0, 0, 0, 1, 0, 0, 0, 0, 1); animation: 0.636943s linear -0.382166s infinite forwards animate-y8akrb4nask; transform-box: view-box;"><path d="M7.04 39.06L7.04-15.50L13.76-15.50L13.76 32.66L38.56 32.66L38.56 39.06L7.04 39.06" style="fill: rgb(23, 147, 209);" transform="translate(-157.760,-19.531)"></path></g><g class="path" style="opacity: 1; transform-origin: -95.36px 12.15px 0px; transform: matrix3d(1, 0, 0, 0, 0, 1, 0, 0, 0, 0, 1, 0, 0, 0, 0, 1); animation: 0.636943s linear -0.343949s infinite forwards animate-y8akrb4nask; transform-box: view-box;"><path d="M49.76 19.14L49.76 19.14Q49.76 26.90 53.24 30.70Q56.72 34.50 62.64 34.50L62.64 34.50Q68.48 34.50 71.76 30.74Q75.04 26.98 75.04 19.46L75.04 19.46Q75.04 11.46 71.56 7.54Q68.08 3.62 62.08 3.62L62.08 3.62Q56.08 3.62 52.92 7.50Q49.76 11.38 49.76 19.14 zM42.96 19.06L42.96 19.06Q42.96 12.98 44.88 8.94Q46.80 4.90 49.76 2.46Q52.72 0.02 56.12-0.98Q59.52-1.98 62.56-1.98L62.56-1.98Q65.44-1.98 68.84-1.06Q72.24-0.14 75.12 2.22Q78 4.58 79.92 8.54Q81.84 12.50 81.84 18.58L81.84 18.58Q81.84 24.90 79.88 29.06Q77.92 33.22 74.96 35.66Q72 38.10 68.56 39.10Q65.12 40.10 62.16 40.10L62.16 40.10Q59.12 40.10 55.76 39.14Q52.40 38.18 49.56 35.82Q46.72 33.46 44.84 29.38Q42.96 25.30 42.96 19.06" style="fill: rgb(51, 51, 51);" transform="translate(-157.760,-19.531)"></path></g><g class="path" style="opacity: 1; transform-origin: -53.68px 12.15px 0px; transform: matrix3d(1, 0, 0, 0, 0, 1, 0, 0, 0, 0, 1, 0, 0, 0, 0, 1); animation: 0.636943s linear -0.305733s infinite forwards animate-y8akrb4nask; transform-box: view-box;"><path d="M113.52 29.70L113.52 20.58Q111.92 20.66 110.48 20.74Q109.04 20.82 107.64 20.94Q106.24 21.06 105.12 21.22L105.12 21.22Q99.36 21.94 96.96 23.74Q94.56 25.54 94.56 28.90L94.56 28.90Q94.56 31.70 96.28 33.10Q98 34.50 100.80 34.50L100.80 34.50Q104.64 34.50 107.64 33.18Q110.64 31.86 113.52 29.70L113.52 29.70 zM114.24 39.70L113.44 35.30Q109.68 37.46 106.44 38.78Q103.20 40.10 99.44 40.10L99.44 40.10Q94.08 40.10 90.92 37.50Q87.76 34.90 87.76 28.90L87.76 28.90Q87.76 25.78 89.36 23.46Q90.96 21.14 93.56 19.58Q96.16 18.02 99.44 17.14Q102.72 16.26 106.16 16.02L106.16 16.02Q107.60 15.86 109.92 15.74Q112.24 15.62 113.52 15.54L113.52 15.54Q113.52 12.74 113.36 10.54Q113.20 8.34 112.40 6.78Q111.60 5.22 110.04 4.42Q108.48 3.62 105.60 3.62L105.60 3.62Q103.28 3.62 101.12 3.90Q98.96 4.18 97.28 4.50L97.28 4.50Q95.28 4.90 93.60 5.38L93.60 5.38L92.32-0.14Q94.32-0.62 96.64-1.02L96.64-1.02Q98.64-1.42 101.28-1.70Q103.92-1.98 106.96-1.98L106.96-1.98Q111.04-1.98 113.56-0.78Q116.08 0.42 117.48 2.46Q118.88 4.50 119.40 7.10Q119.92 9.70 119.92 12.58L119.92 12.58L119.92 31.78Q119.92 32.90 119.96 34.14Q120 35.38 120.12 36.58Q120.24 37.78 120.40 39.06L120.40 39.06L114.24 39.70" style="fill: rgb(23, 147, 209);" transform="translate(-157.760,-19.531)"></path></g><g class="path" style="opacity: 1; transform-origin: -11.64px 8.23px 0px; transform: matrix3d(1, 0, 0, 0, 0, 1, 0, 0, 0, 0, 1, 0, 0, 0, 0, 1); animation: 0.636943s linear -0.267516s infinite forwards animate-y8akrb4nask; transform-box: view-box;"><path d="M156.32 30.26L156.32 4.82Q153.44 4.02 151.84 3.82Q150.24 3.62 148.56 3.62L148.56 3.62Q145.20 3.62 142.80 4.82Q140.40 6.02 138.84 8.14Q137.28 10.26 136.56 13.02Q135.84 15.78 135.84 18.90L135.84 18.90Q135.84 21.70 136.44 24.50Q137.04 27.30 138.32 29.54Q139.60 31.78 141.44 33.14Q143.28 34.50 145.84 34.50L145.84 34.50Q147.60 34.50 149.48 33.86Q151.36 33.22 152.96 32.38Q154.56 31.54 156.32 30.26L156.32 30.26 zM157.04 39.70L156.40 35.86Q154.56 37.14 152.84 37.98Q151.12 38.82 149.08 39.46Q147.04 40.10 145.12 40.10L145.12 40.10Q137.60 40.10 133.32 34.78Q129.04 29.46 129.04 19.22L129.04 19.22Q129.04 13.14 131 9.06Q132.96 4.98 135.92 2.54Q138.88 0.10 142.28-0.94Q145.68-1.98 148.56-1.98L148.56-1.98Q150-1.98 151.60-1.78Q153.20-1.58 156.32-0.78L156.32-0.78L156.32-20.86L162.72-21.58L162.72 31.78Q162.72 32.90 162.76 34.14Q162.80 35.38 162.92 36.58Q163.04 37.78 163.20 39.06L163.20 39.06L157.04 39.70" style="fill: rgb(51, 51, 51);" transform="translate(-157.760,-19.531)"></path></g><g class="path" style="opacity: 1; transform-origin: 19.76px 11.32px 0px; transform: matrix3d(1, 0, 0, 0, 0, 1, 0, 0, 0, 0, 1, 0, 0, 0, 0, 1); animation: 0.636943s linear -0.229299s infinite forwards animate-y8akrb4nask; transform-box: view-box;"><path d="M174.32 39.06L174.32-1.26L180.72-1.98L180.72 39.06L174.32 39.06" style="fill: rgb(23, 147, 209);" transform="translate(-157.760,-19.531)"></path></g><g class="path" style="opacity: 1; transform-origin: 19.96px -29.64px 0px; transform: matrix3d(1, 0, 0, 0, 0, 1, 0, 0, 0, 0, 1, 0, 0, 0, 0, 1); animation: 0.636943s linear -0.191083s infinite forwards animate-y8akrb4nask; transform-box: view-box;"><path d="M173.28-12.70L173.28-12.70Q173.28-14.54 174.52-15.78Q175.76-17.02 177.60-17.02L177.60-17.02Q179.52-17.02 180.84-15.78Q182.16-14.54 182.16-12.70L182.16-12.70Q182.16-10.86 180.84-9.62Q179.52-8.38 177.60-8.38L177.60-8.38Q175.76-8.38 174.52-9.62Q173.28-10.86 173.28-12.70" style="fill: rgb(51, 51, 51);" transform="translate(-157.760,-19.531)"></path></g><g class="path" style="opacity: 1; transform-origin: 50.56px 11.32px 0px; transform: matrix3d(1, 0, 0, 0, 0, 1, 0, 0, 0, 0, 1, 0, 0, 0, 0, 1); animation: 0.636943s linear -0.152866s infinite forwards animate-y8akrb4nask; transform-box: view-box;"><path d="M192.32 39.06L192.32 6.82Q192.40 5.14 191.92-0.46L191.92-0.46L197.84-1.26L198.72 3.86Q201.12 2.26 203.48 1.06Q205.84-0.14 208.32-1.06Q210.80-1.98 213.12-1.98L213.12-1.98Q216.40-1.98 218.60-1.22Q220.80-0.46 222.16 1.30Q223.52 3.06 224.12 5.94Q224.72 8.82 224.72 13.14L224.72 13.14L224.72 39.06L218.32 39.06L218.32 13.86Q218.32 11.46 218.24 9.58Q218.16 7.70 217.56 6.38Q216.96 5.06 215.72 4.34Q214.48 3.62 212.24 3.62L212.24 3.62Q210.16 3.62 207.84 4.54Q205.52 5.46 203.28 6.66Q201.04 7.86 198.72 9.46L198.72 9.46L198.72 39.06L192.32 39.06" style="fill: rgb(23, 147, 209);" transform="translate(-157.760,-19.531)"></path></g><g class="path" style="opacity: 1; transform-origin: 92.92px 26.87px 0px; transform: matrix3d(1, 0, 0, 0, 0, 1, 0, 0, 0, 0, 1, 0, 0, 0, 0, 1); animation: 0.636943s linear -0.11465s infinite forwards animate-y8akrb4nask; transform-box: view-box;"><path d="M267.52-0.22L267.52 42.90Q267.52 45.86 266.88 48.66Q266.24 51.46 264.44 53.66Q262.64 55.86 259.40 57.18Q256.16 58.50 250.88 58.50L250.88 58.50Q247.52 58.42 245.04 58.10Q242.56 57.78 240.32 57.18Q238.08 56.58 236.24 55.78L236.24 55.78L237.92 50.18Q241.04 51.54 244.28 52.26Q247.52 52.98 250.08 52.98L250.08 52.98Q252.88 52.98 254.96 52.42Q257.04 51.86 258.44 50.54Q259.84 49.22 260.52 47.06Q261.20 44.90 261.20 41.70L261.20 41.70L261.20 35.86Q259.52 36.98 257.72 37.90Q255.92 38.82 253.88 39.46Q251.84 40.10 249.92 40.10L249.92 40.10Q242.48 40.10 238.16 34.86Q233.84 29.62 233.84 19.22L233.84 19.22Q233.84 13.22 235.72 9.18Q237.60 5.14 240.48 2.66Q243.36 0.18 246.80-0.90Q250.24-1.98 253.36-1.98L253.36-1.98Q257.44-1.98 260.84-1.30Q264.24-0.62 267.52-0.22L267.52-0.22 zM250.64 34.50L250.64 34.50Q252.40 34.50 254.24 33.86Q256.08 33.22 257.80 32.34Q259.52 31.46 261.20 30.26L261.20 30.26L261.20 4.74Q260.24 4.50 258.96 4.18L258.96 4.18Q257.84 4.02 256.40 3.82Q254.96 3.62 253.36 3.62L253.36 3.62Q250 3.62 247.60 4.82Q245.20 6.02 243.64 8.10Q242.08 10.18 241.36 12.98Q240.64 15.78 240.64 18.90L240.64 18.90Q240.64 21.70 241.24 24.50Q241.84 27.30 243.12 29.54Q244.40 31.78 246.24 33.14Q248.08 34.50 250.64 34.50" style="fill: rgb(51, 51, 51);" transform="translate(-157.760,-19.531)"></path></g><g class="path" style="opacity: 1; transform-origin: 124.44px 17.64px 0px; transform: matrix3d(1, 0, 0, 0, 0, 1, 0, 0, 0, 0, 1, 0, 0, 0, 0, 1); animation: 0.636943s linear -0.0764331s infinite forwards animate-y8akrb4nask; transform-box: view-box;"><path d="M277.36 34.34L277.36 34.34Q277.36 32.42 278.72 31.02Q280.08 29.62 282.08 29.62L282.08 29.62Q284.16 29.62 285.60 31.02Q287.04 32.42 287.04 34.34L287.04 34.34Q287.04 36.34 285.60 37.70Q284.16 39.06 282.08 39.06L282.08 39.06Q280.08 39.06 278.72 37.70Q277.36 36.34 277.36 34.34" style="fill: rgb(23, 147, 209);" transform="translate(-157.760,-19.531)"></path></g><g class="path" style="opacity: 1; transform-origin: 142.2px 17.64px 0px; transform: matrix3d(1, 0, 0, 0, 0, 1, 0, 0, 0, 0, 1, 0, 0, 0, 0, 1); animation: 0.636943s linear -0.0382166s infinite forwards animate-y8akrb4nask; transform-box: view-box;"><path d="M295.12 34.34L295.12 34.34Q295.12 32.42 296.48 31.02Q297.84 29.62 299.84 29.62L299.84 29.62Q301.92 29.62 303.36 31.02Q304.80 32.42 304.80 34.34L304.80 34.34Q304.80 36.34 303.36 37.70Q301.92 39.06 299.84 39.06L299.84 39.06Q297.84 39.06 296.48 37.70Q295.12 36.34 295.12 34.34" style="fill: rgb(51, 51, 51);" transform="translate(-157.760,-19.531)"></path></g><g class="path" style="opacity: 1; transform-origin: 159.96px 17.64px 0px; transform: matrix3d(1, 0, 0, 0, 0, 1, 0, 0, 0, 0, 1, 0, 0, 0, 0, 1); animation: 0.636943s linear infinite forwards animate-y8akrb4nask; transform-box: view-box;"><path d="M312.88 34.34L312.88 34.34Q312.88 32.42 314.24 31.02Q315.60 29.62 317.60 29.62L317.60 29.62Q319.68 29.62 321.12 31.02Q322.56 32.42 322.56 34.34L322.56 34.34Q322.56 36.34 321.12 37.70Q319.68 39.06 317.60 39.06L317.60 39.06Q315.60 39.06 314.24 37.70Q312.88 36.34 312.88 34.34" style="fill: rgb(23, 147, 209);" transform="translate(-157.760,-19.531)"></path></g></g><text dy="0.35em" fill="#1793d1" font-family="Actor" font-size="57">Loading...</text>
</g>
</g><style type="text/css">@keyframes animate-y8akrb4nask { 0.00% {transform: translate(0.00px,0.00px) rotate(0.00deg) scale(1.00, 1.00) skew(0deg, 0.00deg) ;opacity: 1.00;}2.00% {animation-timing-function: cubic-bezier(0.20,0.39,0.50,0.97);transform: translate(0.00px,-1.08px) rotate(0.00deg) ;}36.00% {animation-timing-function: cubic-bezier(0.50,0.03,0.80,0.61);transform: translate(0.00px,-10.00px) rotate(0.00deg) ;}72.00% {transform: translate(0.00px,-0.12px) rotate(0.00deg) ;}74.00% {animation-timing-function: cubic-bezier(0.24,0.43,0.48,0.91);transform: translate(0.00px,0.00px) rotate(0.00deg) scale(1.00, 0.95) ;}86.00% {animation-timing-function: cubic-bezier(0.53,0.08,0.77,0.57);transform: translate(0.00px,0.00px) rotate(0.00deg) scale(1.00, 0.80) ;}100.00% {animation-timing-function: cubic-bezier(0.53,0.08,0.77,0.57);transform: translate(0.00px,0.00px) rotate(0.00deg) scale(1.00, 1.00) ;} }</style><!-- [ldio] generated by https://loading.io --></svg>